# xmcd
#
# Track frame offsets: 
#        150
#        10735
#        24145
#        36885
#        48257
#        63325
#        75457
#        88310
#        98107
#        109757
#
# Disc length: 1642 seconds
#
# Revision: 0
# Processed by: cddbd v1.4PL0 Copyright (c) Steve Scherf et al.
# Submitted via: ExactAudioCopy v0.90a11
#
DISCID=6c06680a
DTITLE=Merle Haggard - Cheatin'
DYEAR=2001
DGENRE=Country
TTITLE0=I'll Always Know
TTITLE1=High On A Hilltop
TTITLE2=Love And Honor
TTITLE3=It Meant Goodbye To Me When You Said Hello To Him
TTITLE4=It's Not Love (But It's Not Bad)
TTITLE5=Because You Can't Be Mine
TTITLE6=I Came So Close To Living Alone
TTITLE7=I'll Look Over You
TTITLE8=Carolyn
TTITLE9=My Ramona
EXTD=
EXTT0=
EXTT1=
EXTT2=
EXTT3=
EXTT4=
EXTT5=
EXTT6=
EXTT7=
EXTT8=
EXTT9=
PLAYORDER=
